<?xml version="1.0" standalone="no"?>
<!DOCTYPE svg PUBLIC "-//W3C//DTD SVG 20010904//EN"
 "http://www.w3.org/TR/2001/REC-SVG-20010904/DTD/svg10.dtd">
<svg version="1.0" xmlns="http://www.w3.org/2000/svg"
 width="547.000000pt" height="546.000000pt" viewBox="0 0 547.000000 546.000000"
 preserveAspectRatio="xMidYMid meet">

<g transform="translate(0.000000,546.000000) scale(0.100000,-0.100000)"
fill="#000000" stroke="none">
<path d="M0 2730 l0 -2730 2735 0 2735 0 0 2730 0 2730 -2735 0 -2735 0 0
-2730z m3703 2115 c90 -19 158 -57 218 -123 89 -97 120 -188 121 -349 0 -239
-108 -407 -303 -473 -54 -18 -81 -21 -169 -18 -93 3 -113 7 -172 35 -168 79
-258 235 -258 448 0 339 244 548 563 480z m-2886 -155 c43 -82 80 -150 83
-150 3 0 39 68 80 150 l74 150 128 0 c71 0 128 -3 128 -6 0 -4 -65 -127 -145
-274 l-145 -267 0 -202 0 -202 -142 3 -143 3 -3 202 -2 203 -155 264 c-85 146
-155 267 -155 270 0 3 72 6 159 6 l160 0 78 -150z m1152 -313 c80 -254 147
-468 149 -474 3 -10 -30 -13 -147 -13 l-150 0 -20 68 c-11 37 -23 80 -27 95
l-6 28 -126 -3 -126 -3 -28 -92 -29 -93 -120 0 c-110 0 -120 2 -115 18 5 18
195 633 252 820 l35 112 157 0 157 0 144 -463z m636 276 c66 -104 133 -213
150 -245 l30 -56 -3 244 -4 244 121 0 121 0 0 -475 0 -476 -122 3 -121 3 -125
200 c-69 110 -147 241 -173 290 -42 77 -47 84 -41 50 4 -22 7 -152 7 -290 l0
-250 -120 0 -120 0 -3 473 -2 472 143 0 143 0 119 -187z m1888 -75 c45 -131
83 -235 86 -232 3 3 39 109 81 237 l76 232 138 3 c81 1 136 -1 134 -7 -1 -5
-79 -219 -173 -475 l-170 -466 -143 2 -144 3 -174 464 c-96 255 -174 468 -174
473 0 5 86 7 191 6 l192 -3 80 -237z m-2138 -814 c34 -18 85 -73 85 -93 0 -3
-28 -14 -62 -24 -53 -16 -64 -16 -73 -4 -12 17 -49 37 -67 37 -8 0 -23 -6 -33
-14 -26 -19 -7 -42 43 -51 77 -13 143 -39 169 -67 39 -41 45 -129 11 -177 -36
-54 -97 -81 -183 -81 -85 0 -129 13 -168 49 -28 26 -57 71 -57 89 0 6 29 15
65 22 64 12 64 12 88 -15 18 -21 33 -28 65 -29 56 -1 75 19 43 45 -13 10 -31
19 -40 19 -40 0 -124 33 -156 61 -83 73 -42 216 72 247 58 16 152 10 198 -14z
m-1401 -101 c17 -62 33 -113 36 -113 3 0 19 52 35 115 l29 115 98 0 98 0 0
-245 0 -246 -67 3 -68 3 -5 154 -5 155 -33 -135 c-47 -187 -43 -179 -96 -179
l-45 0 -14 48 c-8 26 -27 97 -43 157 l-29 110 -5 -155 -5 -155 -55 0 -55 0 -3
243 -2 243 102 -3 102 -3 30 -112z m534 -125 l-3 -243 -75 0 -75 0 -3 243 -2
242 80 0 80 0 -2 -242z m301 122 c41 -66 75 -120 75 -120 1 0 0 54 -2 120 l-3
120 66 0 65 0 -2 -242 -3 -243 -64 0 -63 0 -84 139 -84 138 0 -141 0 -141 -60
0 -60 0 0 245 0 245 73 0 72 -1 74 -119z m861 23 l0 -98 65 98 65 97 70 0 69
0 -59 -85 c-33 -47 -60 -90 -60 -96 0 -5 32 -72 70 -149 39 -77 70 -144 70
-150 0 -6 -32 -10 -79 -10 l-78 0 -42 90 c-23 50 -43 90 -46 90 -2 0 -13 -15
-24 -34 -15 -23 -21 -50 -21 -90 l0 -56 -70 0 -70 0 0 245 0 245 70 0 70 0 0
-97z m505 -773 c177 -23 359 -67 435 -105 54 -27 223 -146 216 -152 -1 -2 -61
6 -132 16 -204 31 -409 44 -613 38 -175 -5 -243 -13 -1185 -156 -550 -83
-1003 -150 -1008 -149 -5 2 361 68 812 148 452 79 817 146 812 148 -6 2 -383
-47 -838 -108 -455 -61 -831 -109 -836 -108 -4 2 357 71 804 153 447 83 803
151 790 153 -50 7 -713 -85 -1201 -167 l-516 -87 -27 -80 c-35 -103 -65 -287
-83 -504 l-14 -175 5 150 c9 259 42 483 86 586 l19 46 237 47 c130 26 507 103
837 171 330 68 629 129 665 135 185 33 474 33 735 0z m485 -264 c235 -29 221
-23 335 -134 314 -304 426 -415 422 -418 -11 -11 -1152 -44 -1496 -43 l-396 2
290 14 c160 8 472 25 695 37 l405 23 -670 3 -670 3 280 17 c154 10 433 25 620
34 187 9 367 18 400 20 33 2 -264 3 -660 2 -396 -1 -713 -1 -705 1 97 17 1040
71 1315 75 68 0 0 5 -160 10 -171 5 -428 4 -660 -2 -524 -14 -544 -12 -195 21
294 27 651 47 890 50 115 2 115 2 -55 11 -154 8 -526 6 -950 -7 l-160 -4 305
34 c235 26 371 36 590 42 252 7 273 8 180 15 -185 13 -577 10 -849 -6 -146 -9
-266 -14 -268 -12 -4 3 115 20 417 58 148 18 227 22 505 22 316 1 325 1 210
13 -302 29 -602 26 -1075 -12 -75 -6 115 29 310 57 135 20 196 23 480 23 318
0 323 0 225 14 -152 21 -697 20 -894 -2 -85 -9 -156 -15 -158 -14 -3 4 217 43
355 62 127 19 614 13 792 -9z m-1390 -91 c0 -8 -5 -15 -10 -15 -6 0 -85 -9
-177 -20 -91 -12 -167 -19 -169 -17 -3 3 309 63 344 66 6 1 12 -6 12 -14z m23
-274 c-7 -156 -11 -286 -9 -289 3 -3 116 2 252 9 189 11 251 11 263 2 13 -9
72 -8 252 2 128 8 250 17 269 20 l35 6 51 -93 c28 -51 50 -95 49 -96 -2 -2
-126 0 -277 4 -218 7 -256 10 -188 15 47 4 140 7 207 8 130 1 153 5 153 27 0
12 -42 14 -245 14 -240 0 -245 0 -235 -19 13 -26 13 -28 -5 -35 -12 -4 -24 12
-48 62 l-32 67 -80 -1 c-44 -1 -158 -5 -252 -9 l-173 -7 -1 -67 c-2 -125 -13
-122 -32 10 l-18 124 35 264 c20 145 36 266 36 269 0 3 2 3 4 1 2 -2 -3 -132
-11 -288z m-33 199 c0 -5 -10 -12 -22 -14 -41 -9 -320 -37 -324 -33 -5 5 270
54 314 56 17 0 32 -3 32 -9z m-891 -294 c-12 -136 -20 -248 -18 -249 2 -2 197
8 432 21 378 21 453 23 436 8 -2 -2 -184 -11 -404 -20 -220 -9 -415 -19 -434
-22 l-34 -5 6 -67 6 -67 -25 90 -24 90 37 237 c20 131 39 236 41 234 2 -3 -6
-115 -19 -250z m-19 235 c0 -9 -208 -36 -216 -28 -5 4 152 34 194 36 12 0 22
-3 22 -8z m894 -16 c-4 -8 -14 -15 -23 -15 -9 0 -74 -7 -146 -15 -193 -22
-200 -17 -20 15 197 34 196 34 189 15z m-1381 -12 c-7 -2 -21 -2 -30 0 -10 3
-4 5 12 5 17 0 24 -2 18 -5z m250 -10 c-7 -2 -21 -2 -30 0 -10 3 -4 5 12 5 17
0 24 -2 18 -5z m227 -22 c0 -10 -47 -18 -150 -25 l-75 -5 100 18 c124 23 125
23 125 12z m890 -31 c0 -11 -31 -16 -181 -30 -167 -15 -172 -11 -19 15 153 26
200 29 200 15z m-1123 -6 c-3 -3 -12 -4 -19 -1 -8 3 -5 6 6 6 11 1 17 -2 13
-5z m213 -33 c-8 -5 -58 -11 -110 -14 l-95 -6 70 13 c84 16 157 19 135 7z
m-217 -28 c-7 -2 -19 -2 -25 0 -7 3 -2 5 12 5 14 0 19 -2 13 -5z m1115 -5 c-3
-9 -45 -17 -119 -24 -185 -19 -215 -13 -59 11 178 28 183 28 178 13z m-903
-27 c-6 -5 -53 -12 -105 -15 l-95 -5 75 13 c94 17 137 19 125 7z m-212 -28
c-7 -2 -19 -2 -25 0 -7 3 -2 5 12 5 14 0 19 -2 13 -5z m1107 -17 c0 -15 -54
-23 -230 -30 l-115 -5 165 23 c91 13 168 24 173 25 4 0 7 -5 7 -13z m-900 -15
c0 -10 -87 -21 -150 -20 -38 2 -32 4 35 14 103 16 115 17 115 6z m-207 -28
c-7 -2 -21 -2 -30 0 -10 3 -4 5 12 5 17 0 24 -2 18 -5z m172 -44 c-16 -4 -66
-6 -110 -6 l-80 0 100 11 c97 12 151 8 90 -5z m925 12 c0 -17 -12 -18 -180
-24 l-165 -5 140 17 c168 22 205 24 205 12z m-1123 -27 c-3 -3 -12 -4 -19 -1
-8 3 -5 6 6 6 11 1 17 -2 13 -5z m3457 -28 c125 -47 234 -132 323 -250 24 -33
40 -63 36 -67 -19 -19 -334 -48 -517 -49 l-78 0 30 -35 c33 -37 52 -89 52
-142 0 -29 -4 -33 -36 -39 -19 -3 -90 -10 -157 -15 l-122 -8 135 4 c140 5 391
31 614 65 l130 20 24 -22 c20 -20 23 -29 17 -68 -13 -98 -17 -109 -37 -116
-12 -4 -31 -31 -48 -68 -16 -35 -38 -67 -52 -74 -12 -7 -72 -21 -133 -32 -102
-19 -112 -23 -140 -54 -16 -19 -46 -44 -65 -55 -19 -12 -33 -21 -30 -21 3 0
148 -7 323 -15 175 -8 322 -17 328 -20 12 -8 12 -42 -1 -50 -10 -6 -685 -139
-860 -170 -282 -49 -583 -49 -990 -1 -19 3 -633 66 -1365 141 -731 75 -1336
138 -1344 141 -39 13 18 23 157 30 83 4 152 10 152 13 0 3 -7 24 -15 46 -23
64 -19 161 9 220 43 92 101 124 225 125 l54 0 -24 26 c-59 64 -184 85 -250 41
-52 -34 -89 -116 -89 -194 l0 -63 -97 6 c-54 4 -101 12 -105 18 -4 6 -8 49 -8
95 l0 84 89 -7 89 -7 53 56 c30 31 66 63 80 71 155 80 360 -68 377 -271 l5
-65 56 0 c31 0 373 -14 761 -30 388 -16 708 -30 711 -30 4 0 10 20 14 45 23
154 120 299 240 357 25 12 45 25 45 28 0 4 -510 15 -1132 26 l-1133 19 635 7
c349 5 1098 7 1663 5 566 -1 1012 1 990 4 -21 4 -215 15 -430 25 -216 10 -391
20 -388 22 2 2 165 7 362 11 l358 6 -230 23 c-126 13 -246 28 -265 32 -21 5
67 8 219 9 140 1 252 3 249 6 -12 12 -169 35 -299 44 -77 5 -143 12 -147 15
-3 3 66 6 154 7 109 0 152 3 136 10 -31 12 -236 39 -315 41 l-62 1 65 7 c36 4
94 9 130 10 l65 2 -45 14 c-25 7 -103 19 -175 27 l-130 13 215 7 c376 13 755
28 765 32 34 12 122 2 179 -19z m-3249 -16 c-4 -6 -47 -9 -103 -8 -86 1 -91 2
-42 8 90 11 152 11 145 0z m895 -3 c0 -11 -27 -16 -107 -20 -203 -13 -240 -5
-68 13 88 10 163 18 168 19 4 0 7 -5 7 -12z m-1112 -14 c-10 -2 -28 -2 -40 0
-13 2 -5 4 17 4 22 1 32 -1 23 -4z m207 -42 c-6 -5 -75 -11 -155 -13 -152 -6
-154 -3 -5 11 127 12 171 12 160 2z m13 -58 c-15 -2 -42 -2 -60 0 -18 2 -6 4
27 4 33 0 48 -2 33 -4z m-235 -10 c-7 -2 -19 -2 -25 0 -7 3 -2 5 12 5 14 0 19
-2 13 -5z m95 0 c-16 -2 -40 -2 -55 0 -16 2 -3 4 27 4 30 0 43 -2 28 -4z
m3784 -189 c3 -3 -1 -27 -10 -53 -16 -53 -11 -87 13 -77 9 3 15 0 15 -8 0 -14
-21 -26 -46 -26 -11 0 -14 18 -14 85 0 76 2 85 18 85 10 0 21 -3 24 -6z m-72
-63 c0 -60 -14 -103 -40 -118 -10 -7 -96 -22 -191 -34 l-171 -21 -24 23 c-23
24 -76 138 -68 150 2 3 61 9 131 13 70 5 171 14 223 21 151 20 140 22 140 -34z
m-3522 -188 c-16 -2 -40 -2 -55 0 -16 2 -3 4 27 4 30 0 43 -2 28 -4z m1491
-19 c2 -2 -1 -15 -7 -29 -15 -32 25 -32 -802 10 l-655 34 730 -6 c402 -3 732
-7 734 -9z"/>
<path d="M3560 4633 c-26 -10 -51 -37 -73 -78 -29 -56 -37 -266 -13 -348 21
-73 60 -107 123 -107 54 0 96 36 112 96 29 113 22 302 -14 378 -23 49 -87 77
-135 59z"/>
<path d="M1636 4530 c-7 -17 -66 -228 -66 -235 0 -3 32 -5 70 -5 39 0 70 3 70
8 -1 28 -69 244 -74 232z"/>
<path d="M2598 2713 c7 -3 16 -2 19 1 4 3 -2 6 -13 5 -11 0 -14 -3 -6 -6z"/>
<path d="M2523 2703 c9 -2 23 -2 30 0 6 3 -1 5 -18 5 -16 0 -22 -2 -12 -5z"/>
<path d="M3753 2433 c9 -2 23 -2 30 0 6 3 -1 5 -18 5 -16 0 -22 -2 -12 -5z"/>
<path d="M3948 2133 c18 -2 45 -2 60 0 15 2 0 4 -33 4 -33 0 -45 -2 -27 -4z"/>
<path d="M2814 1952 c14 -27 18 -29 68 -26 29 2 138 7 241 10 167 6 188 8 185
23 -3 14 -31 16 -256 19 l-253 2 15 -28z"/>
<path d="M3861 1619 c36 -67 95 -124 137 -132 15 -3 88 -1 162 3 74 5 143 9
153 10 9 0 17 7 17 16 0 27 -51 113 -78 130 -27 18 -172 32 -335 33 l-88 1 32
-61z"/>
<path d="M3405 1618 c33 -18 89 -62 124 -98 l65 -65 205 -2 c127 -1 193 1 173
6 -42 11 -76 42 -112 107 l-29 51 -183 12 c-101 7 -210 14 -243 17 l-60 5 60
-33z"/>
<path d="M3074 1566 c-47 -15 -117 -61 -155 -103 -67 -72 -119 -201 -119 -295
0 -37 -3 -47 -12 -41 -7 4 -181 22 -386 39 l-373 31 -29 -28 -28 -29 41 0 c23
0 238 -11 477 -25 239 -14 442 -25 451 -25 13 0 18 13 21 63 7 112 80 227 170
270 84 40 268 58 333 33 25 -10 -25 36 -75 68 -82 53 -221 72 -316 42z"/>
<path d="M940 1432 c-23 -13 -45 -38 -63 -73 -25 -47 -28 -63 -25 -119 5 -78
30 -136 72 -161 66 -40 137 -14 178 64 30 59 31 166 1 223 -38 72 -103 98
-163 66z m82 -53 c19 -10 18 -12 -13 -27 -85 -43 -70 -201 19 -202 26 -1 26
-1 8 -15 -61 -47 -146 17 -146 110 0 48 22 97 55 123 31 25 47 27 77 11z"/>
<path d="M4775 1425 c-5 -2 -63 -11 -127 -20 l-118 -17 0 -49 c0 -58 -6 -57
165 -31 l110 18 0 48 c0 47 -7 59 -30 51z"/>
<path d="M3145 1376 c-162 -75 -206 -322 -83 -461 55 -62 103 -85 176 -85 51
0 67 5 108 33 55 36 108 109 125 170 6 23 9 71 6 107 -14 195 -175 310 -332
236z m152 -77 l28 -12 -32 -7 c-50 -11 -83 -38 -104 -83 -24 -54 -24 -101 1
-153 26 -53 62 -77 117 -77 24 0 43 -1 43 -3 0 -1 -16 -12 -35 -24 -42 -26
-109 -29 -154 -6 -79 41 -118 185 -73 272 46 89 128 126 209 93z"/>
<path d="M1350 1231 c0 -11 -9 -44 -19 -71 l-19 -51 41 5 c23 3 108 8 189 12
l147 6 -29 24 c-16 14 -32 34 -35 44 -10 31 -32 37 -157 45 -116 7 -118 7
-118 -14z"/>
<path d="M4025 1060 l-70 -5 85 -7 c47 -3 86 -5 87 -4 1 1 -6 6 -15 11 -9 6
-48 8 -87 5z"/>
<path d="M4745 1683 c-93 -11 -98 -13 -81 -32 9 -10 16 -21 16 -26 0 -5 -7 0
-15 11 -17 23 -20 3 -4 -28 9 -17 13 -18 20 -7 7 12 9 11 8 -1 0 -8 -4 -24 -8
-34 -7 -19 -8 -19 -14 3 -6 25 -30 24 -35 -2 -2 -12 8 -17 42 -22 100 -15 146
13 154 95 5 55 7 54 -83 43z"/>
<path d="M4472 1660 c-50 -4 -94 -9 -96 -11 -9 -9 47 -110 67 -124 18 -11 38
-12 110 -3 81 10 86 12 72 28 -19 21 -19 36 0 44 16 6 20 41 6 50 -5 4 -14 -6
-20 -21 l-11 -28 6 30 c3 16 11 33 17 37 13 9 -15 8 -151 -2z"/>
</g>
</svg>
